<?xml version="1.0" encoding="utf-8"?>

<!DOCTYPE svg PUBLIC "-//W3C//DTD SVG 1.1//EN" "http://www.w3.org/Graphics/SVG/1.1/DTD/svg11.dtd">
<!-- Uploaded to: SVG Repo, www.svgrepo.com, Generator: SVG Repo Mixer Tools -->
<svg height="800px" width="800px" version="1.1" id="_x32_" xmlns="http://www.w3.org/2000/svg" xmlns:xlink="http://www.w3.org/1999/xlink" 
	 viewBox="0 0 512 512"  xml:space="preserve">
<style type="text/css">
	.st0{fill:#000000;}
</style>
<g>
	<path class="st0" d="M484.777,1.787c-10.354,4.234-109.379,27.782-228.773,27.782c-119.404,0-218.428-23.547-228.782-27.782
		c-14.249-5.818-13.07,3.886-13.07,10.27c0,33.807,0,159.396,0,224.614C14.152,396.068,157.951,512,256.005,512
		c98.044,0,241.843-115.932,241.843-275.329c0-65.218,0-190.807,0-224.614C497.847,5.673,499.036-4.03,484.777,1.787z
		 M92.468,193.52c6.385-31.431,35.768-53.412,68.302-49.923c32.713,3.527,56.834,31.534,56.118,63.841
		c-18.106-11.033-38.843-18.332-61.304-20.755C133.565,184.316,112.168,186.899,92.468,193.52z M256.005,407.43
		c-28.328,0-124.194-13.08-135.086-108.945c17.427,15.258,74.073,41.398,135.086,41.398c61.003,0,117.649-26.14,135.076-41.398
		C380.189,394.351,284.323,407.43,256.005,407.43z M356.425,186.683c-22.462,2.424-43.208,9.722-61.314,20.755
		c-0.716-32.307,23.405-60.314,56.118-63.841c32.534-3.49,61.918,18.492,68.302,49.923
		C399.831,186.899,378.435,184.316,356.425,186.683z"/>
</g>
</svg>