<?xml version="1.0" encoding="utf-8"?>
<!-- Uploaded to: SVG Repo, www.svgrepo.com, Generator: SVG Repo Mixer Tools -->
<svg fill="#000000" height="800px" width="800px" version="1.2" baseProfile="tiny" id="Layer_1" xmlns="http://www.w3.org/2000/svg" xmlns:xlink="http://www.w3.org/1999/xlink"
	  viewBox="0 0 256 256" xml:space="preserve">
<path d="M117.3,74.1c13.9,0,25.3-11.4,25.3-25.3c0-14-11.4-25.3-25.3-25.3S92.2,35,92.2,48.8S103.4,74.1,117.3,74.1z M129.3,38.7
	c2.4,0,4.4,1.9,4.4,4.4c0,2.5-2.1,4.4-4.4,4.4c-2.4,0-4.4-1.9-4.4-4.4C124.9,40.5,126.7,38.7,129.3,38.7z M127.2,56.2
	c0.5-1.3,2.1-1.8,3.2-1.3c1.3,0.5,1.8,2.1,1.3,3.2c-2.5,5.6-8.2,9.3-14.2,9.3c-6.1,0-11.7-3.6-14.2-9.3c-0.5-1.3,0-2.6,1.3-3.2
	c1.3-0.5,2.6,0,3.2,1.3c1.8,3.8,5.6,6.3,9.8,6.3C121.6,62.5,125.5,60,127.2,56.2z M106.2,38.7c2.4,0,4.4,1.9,4.4,4.4
	c0,2.4-1.9,4.4-4.4,4.4c-2.4,0-4.4-1.9-4.4-4.4C101.8,40.8,103.8,38.7,106.2,38.7z M200.3,2.1c11.5,0,20.8,9.3,20.8,20.8
	s-9.3,20.8-20.8,20.8c-11.5,0-20.8-9.3-20.8-20.8S188.8,2.1,200.3,2.1z M226.1,48.8h-47.1c-6.8,0-13.2,2.6-18.4,7.5
	c-0.2,0.2-21.8,25.1-21.8,25.1h-37.6c-4.9,0-9.1,4.2-9.1,9.1s4.2,9.1,9.1,9.1h41.5c2.3,0,4.7-1,6.2-2.6l18.4-21.7
	c0.5-0.5,1-0.8,1.9-0.8c1.5,0,2.6,1,2.6,2.6v160.7c0,7.2,5.7,12.9,12.9,12.9s12.9-5.7,12.9-12.9v-90.5c0-1.5,1-2.6,2.6-2.6
	c1.5,0,2.6,1,2.6,2.6v90.7c0,7.2,5.7,12.9,12.9,12.9c7.2,0,12.9-5.7,12.9-12.9V80c0-1.5,1-2.6,2.6-2.6c1.5,0,2.6,1,2.6,2.6v58.3
	c0,4.9,4.2,9.1,9.1,9.1s9.1-4.2,9.1-9.1V74.9C252,60.6,240.4,48.8,226.1,48.8z M32.9,2.1c11.5,0,20.8,9.3,20.8,20.8
	s-9.3,20.8-20.8,20.8s-20.8-9.3-20.8-20.8S21.4,2.1,32.9,2.1z M29,49.2c0,0-2.1-0.2-2.6-0.2c-6.5,0-11.7,5.1-11.7,11.7
	c0,0.2,0,77.8,0,77.8c0,4.9,4.2,9.1,9.1,9.1s9.1-4.2,9.1-9.1V80c0-1.5,1-2.6,2.6-2.6c1.5,0,2.6,1,2.6,2.6v58.3
	c0,3.4-1.3,6.5-3.1,9.1c-2.6,3.1-6.5,5.1-11.2,5.1c-1.3,0-2.6-0.2-3.9-0.5v86.1c0,7.2,5.7,12.9,12.9,12.9s12.9-5.7,12.9-12.9v-95.4
	c3.4-2.6,5.9-6.5,7-10.6c3.4-14.2,5.1-29.3,5.1-44.5c0.2-1,0-3.6,0-3.9C57.9,66.2,45.3,52,29,49.2z"/>
</svg>